# xmcd
#
# Track frame offsets: 
#        150
#        10537
#        20115
#        33057
#        44725
#        56015
#        67015
#        79305
#        92070
#        104730
#        119882
#        133730
#        149762
#        162332
#        175210
#        187257
#        200680
#        214412
#        225872
#
# Disc length: 3178 seconds
#
# Revision: 6
# Processed by: cddbd v1.5.2PL0 Copyright (c) Steve Scherf et al.
# Submitted via: ExactAudioCopyFreeDBPlugin 1.0
#
DISCID=280c6813
DTITLE=Various Artist - Sweet Dreams Of Country - D2
DYEAR=1990
DGENRE=Country
TTITLE0=Chet Atkins - Mister Sandman
TTITLE1=Patti Page - Release Me
TTITLE2=Floyd Cramer - My Cup Runneth Over
TTITLE3=Tennessee Ernie Ford - Red Roses For A Blue Lady
TTITLE4=Patsy Cline - Half As Much
TTITLE5=Patsy Cline - Crazy Arms
TTITLE6=Patsy Cline - Always
TTITLE7=Patsy Cline - Just A Closer Walk With Thee
TTITLE8=Patsy Cline - You Made Me Love You
TTITLE9=Patsy Cline - They Wayward Wind
TTITLE10=Glen Campbell - Theme From ''Love Story'' (Where Do I Begin)
TTITLE11=Eddy Arnold - Yesterday, When I Was Young
TTITLE12=Jimmy Dean - Jean
TTITLE13=Elvis Presley - The Hawaiian Wedding Song
TTITLE14=Bobby Goldsboro - The Straight Life
TTITLE15=Glen Campbell - Gentle On My Mind
TTITLE16=Floyd Cramer - Blue Bayou
TTITLE17=Floyd Cramer - King Of The Road
TTITLE18=Floyd Cramer - Behind Closed Doors
EXTD=
EXTT0=
EXTT1=
EXTT2=
EXTT3=
EXTT4=
EXTT5=
EXTT6=
EXTT7=
EXTT8=
EXTT9=
EXTT10=
EXTT11=
EXTT12=
EXTT13=
EXTT14=
EXTT15=
EXTT16=
EXTT17=
EXTT18=
PLAYORDER=
